<svg width="512" height="512" viewBox="0 0 512 512" xmlns="http://www.w3.org/2000/svg">
  <defs>
<!--Premium diagonal gradient-->
    <linearGradient id="bgGrad" x1="0" y1="0" x2="1" y2="1">
      <stop offset="0%" stop-color="#1fa2c6"/>
      <stop offset="25%" stop-color="#28b3cf"/>
      <stop offset="50%" stop-color="#2f9fd6"/>
      <stop offset="75%" stop-color="#2b85dd"/>
      <stop offset="100%" stop-color="#1e6fd9"/>
    </linearGradient>
<!--Grey icons-->
    <linearGradient id="iconGrey" x1="0" y1="0" x2="0" y2="1">
      <stop offset="0%" stop-color="#f4f4f4"/>
      <stop offset="100%" stop-color="#d6d6d6"/>
    </linearGradient>
<!--Yellow highlight-->
    <linearGradient id="iconYellow" x1="0" y1="0" x2="0" y2="1">
      <stop offset="0%" stop-color="#ffe082"/>
      <stop offset="100%" stop-color="#f5c542"/>
    </linearGradient>
<!--Icon templates (not rendered)-->
    <g id="greyIcon">
      <rect width="100" height="100" rx="18" fill="url(#iconGrey)"/>
      <circle cx="26" cy="26" r="8" fill="#9aa3aa"/>
      <polygon points="12,72 36,42 60,62 84,44 84,84 12,84" fill="#9aa3aa"/>
    </g>
    <g id="yellowIcon">
      <rect width="102" height="102" rx="18" fill="url(#iconYellow)"/>
      <circle cx="26" cy="26" r="8" fill="white"/>
      <polygon points="12,72 36,42 60,62 84,44 84,84 12,84" fill="white"/>
    </g>
  </defs>
<!--Background-->
  <rect width="512" height="512" fill="url(#bgGrad)"/>
<!--F moved left-->
  <g transform="translate(20, 46)">
<!--Vertical bar-->
    <use href="#greyIcon" x="20" y="0"/>
    <use href="#greyIcon" x="20" y="108"/>
    <use href="#greyIcon" x="20" y="216"/>
    <use href="#greyIcon" x="20" y="324"/>
<!--Top bar-->
    <use href="#greyIcon" x="128" y="0"/>
    <use href="#greyIcon" x="236" y="0"/>
    <use href="#greyIcon" x="346" y="0"/>
<!--Yellow highlighted icon-->
    <use href="#greyIcon" x="236" y="216"/>
    <use href="#yellowIcon" x="128" y="216"/>
  </g>
</svg>
